# xmcd CD database file
#
# Track frame offsets:
#	150
#	26212
#	59486
#	78916
#	99535
#	132822
#	150064
#	168649
#	178281
#	198906
#	224541
#	247140
#	263688
#
# Disc length: 4190 seconds
#
# Revision: 0
# Processed by: cddbd v1.4PL0 Copyright (c) Steve Scherf et al.
# Submitted via: CDex 1.51
#
DISCID=b5105c0d
DTITLE=John Scofield - Bump
DYEAR=2000
DGENRE=Jazz
TTITLE0=Three Sisters
TTITLE1=Chichon
TTITLE2=Beep Beep
TTITLE3=Kelpers
TTITLE4=Groan Man
TTITLE5=Fez
TTITLE6=Blackout
TTITLE7=Kilgeffen
TTITLE8=We Are Not Alone
TTITLE9=Swinganova
TTITLE10=Drop and Roll
TTITLE11=Kilgeffen (Reprise)
TTITLE12=Interview and Studio Take
EXTD=YEAR: 2000
EXTT0=
EXTT1=
EXTT2=
EXTT3=
EXTT4=
EXTT5=
EXTT6=
EXTT7=
EXTT8=
EXTT9=
EXTT10=
EXTT11=
EXTT12=
PLAYORDER=
